<?xml version="1.0" encoding="utf-8"?>
<!-- Generator: Adobe Illustrator 15.1.0, SVG Export Plug-In . SVG Version: 6.00 Build 0)  -->
<!DOCTYPE svg PUBLIC "-//W3C//DTD SVG 1.1//EN" "http://www.w3.org/Graphics/SVG/1.1/DTD/svg11.dtd">
<svg version="1.1" id="Warstwa_1" xmlns="http://www.w3.org/2000/svg" xmlns:xlink="http://www.w3.org/1999/xlink" x="0px" y="0px"
	 width="16px" height="16px" viewBox="888 888 16 16" enable-background="new 888 888 16 16" xml:space="preserve">
<path d="M893.336,898.93l0.609-1.102c-0.453-0.328-0.807-0.742-1.063-1.242S892.5,895.558,892.5,895c0-0.63,0.159-1.216,0.477-1.758
	c-1.193,0.609-2.185,1.528-2.977,2.758C890.87,897.344,891.982,898.32,893.336,898.93z M896.375,893
	c0-0.104-0.037-0.192-0.109-0.266s-0.162-0.109-0.266-0.109c-0.651,0-1.209,0.233-1.676,0.699s-0.699,1.024-0.699,1.676
	c0,0.104,0.037,0.192,0.109,0.266s0.162,0.109,0.266,0.109s0.193-0.036,0.266-0.109s0.109-0.161,0.109-0.266
	c0-0.448,0.159-0.831,0.477-1.148s0.701-0.477,1.148-0.477c0.104,0,0.193-0.036,0.266-0.109S896.375,893.104,896.375,893z
	 M899.211,891.508c0,0.036-0.003,0.06-0.008,0.07c-0.547,0.979-1.367,2.453-2.461,4.422s-1.917,3.445-2.469,4.43l-0.383,0.695
	c-0.052,0.083-0.125,0.125-0.219,0.125c-0.063,0-0.412-0.183-1.047-0.547c-0.083-0.052-0.125-0.125-0.125-0.219
	c0-0.063,0.115-0.289,0.344-0.68c-0.745-0.339-1.431-0.789-2.059-1.352s-1.17-1.2-1.629-1.914C889.052,896.378,889,896.198,889,896
	s0.052-0.378,0.156-0.539c0.797-1.224,1.787-2.19,2.969-2.898s2.474-1.063,3.875-1.063c0.463,0,0.933,0.044,1.406,0.133l0.422-0.758
	c0.052-0.083,0.125-0.125,0.219-0.125c0.026,0,0.073,0.016,0.141,0.047s0.148,0.071,0.242,0.121s0.18,0.098,0.258,0.145
	s0.16,0.095,0.246,0.145s0.137,0.079,0.152,0.09C899.169,891.349,899.211,891.419,899.211,891.508z M899.5,895
	c0,0.724-0.206,1.384-0.617,1.98s-0.956,1.024-1.633,1.285l2.188-3.922C899.48,894.578,899.5,894.797,899.5,895z M903,896
	c0,0.183-0.052,0.362-0.156,0.539c-0.203,0.333-0.487,0.711-0.852,1.133c-0.781,0.896-1.687,1.591-2.715,2.086
	S897.156,900.5,896,900.5l0.578-1.031c1.104-0.094,2.126-0.45,3.066-1.07S901.37,896.979,902,896
	c-0.599-0.933-1.333-1.698-2.203-2.297l0.492-0.875c0.495,0.333,0.97,0.731,1.426,1.195s0.832,0.942,1.129,1.438
	C902.948,895.638,903,895.817,903,896z"/>
</svg>
