<?xml version="1.0" encoding="utf-8"?>
<!-- Generator: Adobe Illustrator 15.1.0, SVG Export Plug-In . SVG Version: 6.00 Build 0)  -->
<!DOCTYPE svg PUBLIC "-//W3C//DTD SVG 1.1//EN" "http://www.w3.org/Graphics/SVG/1.1/DTD/svg11.dtd">
<svg version="1.1" id="Warstwa_1" xmlns="http://www.w3.org/2000/svg" xmlns:xlink="http://www.w3.org/1999/xlink" x="0px" y="0px"
	 width="16px" height="16px" viewBox="0 0 16 16" enable-background="new 0 0 16 16" xml:space="preserve">
<path fill="none" d="M1.059,0.529H16v14.941H1.059V0.529z"/>
<path fill="#3687CC" d="M11.321,2.397H3.35c-0.736,0-1.328,0.598-1.328,1.328v9.298c0,0.731,0.592,1.329,1.328,1.329h9.298
	c0.731,0,1.329-0.598,1.329-1.329v-7.97L11.321,2.397z M8,13.023c-1.103,0-1.994-0.89-1.994-1.992c0-1.101,0.891-1.992,1.994-1.992
	s1.991,0.892,1.991,1.992C9.991,12.134,9.103,13.023,8,13.023z M9.991,6.382H3.35V3.725h6.641V6.382z"/>
</svg>
