<?xml version="1.0" encoding="utf-8"?>
<!-- Generator: Adobe Illustrator 15.1.0, SVG Export Plug-In . SVG Version: 6.00 Build 0)  -->
<!DOCTYPE svg PUBLIC "-//W3C//DTD SVG 1.1//EN" "http://www.w3.org/Graphics/SVG/1.1/DTD/svg11.dtd">
<svg version="1.1" id="Warstwa_1" xmlns="http://www.w3.org/2000/svg" xmlns:xlink="http://www.w3.org/1999/xlink" x="0px" y="0px"
	 width="16px" height="16px" viewBox="888 888 16 16" enable-background="new 888 888 16 16" xml:space="preserve">
<path d="M902,896c-0.792-1.229-1.784-2.148-2.977-2.758c0.317,0.541,0.477,1.127,0.477,1.758c0,0.963-0.343,1.787-1.027,2.473
	c-0.685,0.685-1.509,1.027-2.473,1.027c-0.963,0-1.788-0.343-2.473-1.027c-0.685-0.686-1.027-1.51-1.027-2.473
	c0-0.631,0.159-1.217,0.477-1.758c-1.193,0.609-2.185,1.528-2.977,2.758c0.693,1.067,1.561,1.918,2.605,2.551
	s2.176,0.949,3.395,0.949s2.351-0.316,3.395-0.949S901.308,897.067,902,896z M896.375,893c0-0.104-0.037-0.193-0.109-0.266
	c-0.073-0.073-0.162-0.109-0.266-0.109c-0.651,0-1.209,0.232-1.676,0.699c-0.466,0.466-0.699,1.024-0.699,1.676
	c0,0.104,0.037,0.192,0.109,0.266c0.073,0.072,0.162,0.109,0.266,0.109s0.193-0.037,0.266-0.109
	c0.073-0.073,0.109-0.162,0.109-0.266c0-0.448,0.159-0.831,0.477-1.148c0.318-0.318,0.701-0.477,1.148-0.477
	c0.104,0,0.193-0.037,0.266-0.109C896.339,893.192,896.375,893.104,896.375,893z M903,896c0,0.177-0.052,0.356-0.156,0.539
	c-0.729,1.197-1.71,2.157-2.941,2.879c-1.231,0.721-2.532,1.082-3.902,1.082c-1.37,0-2.67-0.362-3.902-1.086
	c-1.232-0.725-2.212-1.683-2.941-2.875C889.052,896.356,889,896.177,889,896c0-0.178,0.052-0.357,0.156-0.539
	c0.729-1.193,1.709-2.151,2.941-2.875c1.232-0.725,2.533-1.086,3.902-1.086c1.37,0,2.671,0.361,3.902,1.086
	c1.231,0.724,2.212,1.682,2.941,2.875C902.948,895.643,903,895.822,903,896z"/>
</svg>
